<svg
    xmlns="http://www.w3.org/2000/svg" viewBox="0 0 816 358.31">
    <defs>
        <style>.cls-1{fill:#fff;}.cls-2{fill:#cfe9f6;}.cls-3{fill:#5bb7e1;}.cls-4{fill:#89cae9;}.cls-5{fill:#88cae9;}.cls-6{fill:#1598d4;}.cls-7{fill:#a0d5ed;}.cls-8{fill:#b8dff1;}.cls-9{fill:#1899d5;}.cls-10{fill:#1799d5;}.cls-11{fill:#1999d5;}.cls-12{fill:#43addc;}.cls-13{fill:#199ad5;}.cls-14{fill:#1e9cd6;}.cls-15{fill:#e5f3fa;}.cls-16{fill:#b6dff1;}.cls-17{fill:#e6f3fa;}.cls-18{fill:#cee8f6;}</style>
    </defs>
    <title>アートボード 1</title>
    <g id="レイヤー_2" data-name="レイヤー 2">
        <circle class="cls-1" cx="179.49" cy="181.14" r="130.33"/>
    </g>
    <g id="レイヤー_1" data-name="レイヤー 1">
        <path class="cls-2" d="M174,50.76c29.64-1.16,59.84,8.28,81.74,24.63l-15.94,6.23s39.76,21.24,46.69,25a130.6,130.6,0,0,1,10,17l-59.55,2.2,2.82-44.23-89.68,34.69Z"/>
        <path class="cls-3" d="M52.13,209.54a144.65,144.65,0,0,1-2.85-35.2c1.23-29.52,12.6-56,31.43-78.23l33.08,124.53S71.39,213.28,52.13,209.54Z"/>
        <path class="cls-4" d="M113.79,220.64,80.71,96.11a121.36,121.36,0,0,1,9.05-9.5c18.3,9,60.31,29.7,60.31,29.7Z"/>
        <path class="cls-5" d="M296.48,123.65a96.82,96.82,0,0,1,8.59,22.52l-27,92.39L236.93,125.85Z"/>
        <path class="cls-6" d="M207,308.51c-36.07,8.34-74.07-1.72-97.19-17.23.36-4,4-70.64,4-70.64S206,307.56,207,308.51Z"/>
        <path class="cls-7" d="M109.76,291.28c-22.14-12.12-41.95-37.72-51.65-62.55l55.68-8.09S110.12,287.32,109.76,291.28Z"/>
        <path class="cls-8" d="M150.07,116.31,107,72.67c13.31-8.88,35.44-20.13,66.95-21.91Z"/>
        <path class="cls-9" d="M492.46,202.51v21.76h-15V159.88h14.6c.25,1.35.51,2.76.71,3.8,17.06-8.77,30.09-6.1,35.6,13.62,2.69,9.62.73,19.4-7.88,26.21C513,209.48,505.17,209.14,492.46,202.51Zm21.46-19.24c.07-7-4.6-12.46-10.72-12.54s-10.75,5.24-10.83,12.42c-.08,7,4.61,12.49,10.7,12.52S513.86,190.39,513.92,183.27Z"/>
        <path class="cls-10" d="M553.09,202.18v22.16h-14.7V159.89h14.45l.61,4.73c10.15-7.88,20.3-8.05,29.7.59,7.47,6.88,9,20.69,4.19,30.75C581.26,208.61,568.38,211.09,553.09,202.18Zm21.22-19c0-7.64-4.17-12.56-10.6-12.45-6,.11-10.45,5.32-10.54,12.27-.1,7.26,4.41,12.65,10.61,12.67C570.15,195.7,574.29,190.78,574.31,183.18Z"/>
        <path class="cls-9" d="M361.9,197.62c1.9-3.88,3.71-7.59,5.47-11.21,4.9,2.38,9.44,5.1,14.34,6.8a27.36,27.36,0,0,0,11.22,1.3c1.87-.17,4.43-2.54,5-4.41.39-1.35-1.64-4.36-3.3-5.14a102.45,102.45,0,0,0-13.6-4.81c-10.74-3.34-16-9.09-15.62-17.37.38-8.79,6.41-15.36,17-17.52,11.38-2.33,22.07,0,32.33,6.09-1.9,4.08-3.7,8-5.54,11.9-4.92-1.77-9.47-3.69-14.19-5a20.48,20.48,0,0,0-8.35-.52c-1.62.24-3.9,1.95-4.2,3.36s1.07,3.79,2.41,4.84c1.75,1.37,4.18,1.92,6.35,2.71,4.53,1.63,9.17,3,13.62,4.83,6.47,2.66,9.95,7.71,10.14,14.69s-2.75,12.52-9.1,16C393.42,210.85,373.68,208.09,361.9,197.62Z"/>
        <path class="cls-11" d="M647.15,207.28h-15c0-4.55,0-9,0-13.38s.06-8.66,0-13-1.93-7.39-6.44-8.25-8.89,1.25-10.4,5.58a23.73,23.73,0,0,0-1.16,7.31c-.15,7.12-.06,14.24-.06,21.62H598.87V141.75h15v23c4.89-2,9.59-5,14.63-5.73,9.8-1.53,17.77,4.52,18.51,14.41C647.79,184.44,647.15,195.61,647.15,207.28Z"/>
        <path class="cls-9" d="M422.75,164.05c10.85-4.47,21.33-7.56,32.65-3.43,6.08,2.23,9.92,6.75,10.22,12.94.55,11.08.16,22.21.16,33.6H451.33c-.27-1.24-.57-2.58-1-4.34a21.33,21.33,0,0,1-17.84,4.92c-7.67-1.23-12.59-6.71-12.81-14.26s3.88-12.79,11.94-14.06c6-.95,12.23-.82,18.35-1.17.2-5-1.75-7.76-6.68-7.57-5.36.2-10.67,1.57-16.68,2.54C425.58,170.71,424.25,167.59,422.75,164.05Zm27.71,22.79c-4.16,0-8.07-.54-11.71.23-1.81.38-4.3,3.15-4.33,4.87s2.15,4.67,4,5.35C445,199.7,450.94,194.6,450.46,186.84Z"/>
        <path class="cls-12" d="M207,308.51l71.1-69.95s8,9.58,11,13.23C269.46,281.92,241.67,301,207,308.51Z"/>
        <path class="cls-13" d="M758.36,191.69l7.23,7.25c.09.1.08.29.12.44-8.08,9.32-24.5,11.36-35.62,4.41-9.4-5.86-13.05-19.47-8.23-30.62s17.27-16.69,30.43-13.4c11.5,2.88,17.73,13.16,16.36,27.71H736.08C737.82,197.28,746.92,198.86,758.36,191.69Zm-4.7-12.42c.23-5.75-2.76-9.28-7.83-9.66-5.67-.42-9.42,3-10.23,9.66Z"/>
        <path class="cls-9" d="M289,251.79c-3-3.65-11-13.23-11-13.23l27-92.39A130.73,130.73,0,0,1,289,251.79Z"/>
        <path class="cls-10" d="M700.65,207.23H686.32V160h14.62c.13,2,.25,3.9.42,6.5,4.42-4.39,8.85-8,15.36-7.51v13.35c-1.45.13-2.87.22-4.29.4-7.41,1-11.19,5.18-11.26,12.65-.06,6.81,0,13.63-.07,20.44A6.69,6.69,0,0,1,700.65,207.23Z"/>
        <path class="cls-14" d="M658.46,159.76h15v47.31h-15Z"/>
        <path class="cls-15" d="M107,72.67l43.07,43.64s-42-20.66-60.31-29.7A142.9,142.9,0,0,1,107,72.67Z"/>
        <path class="cls-16" d="M113.79,220.64l-55.68,8.09a117,117,0,0,1-6-19.19C71.39,213.28,113.79,220.64,113.79,220.64Z"/>
        <path class="cls-17" d="M286.44,106.65l-46.69-25,15.94-6.23C267,83,279.75,96.35,286.44,106.65Z"/>
        <path class="cls-9" d="M674.12,145.81a8.07,8.07,0,0,1-16.13.1c0-4.88,3.18-8.19,8-8.25A7.74,7.74,0,0,1,674.12,145.81Z"/>
        <path class="cls-6" d="M236.93,125.85S209.82,157,196.3,172.21c-9.67,10.9-30.07,32.4-30.07,32.4l-16.16-88.3s41.8,4.25,61.26,6.39C219.88,123.64,236.93,125.85,236.93,125.85Z"/>
        <path class="cls-7" d="M236.93,125.85s-17.05-2.21-25.6-3.15c-19.46-2.14-61.26-6.39-61.26-6.39l89.68-34.69Z"/>
        <polygon class="cls-18" points="150.07 116.31 166.22 204.61 113.8 220.65 150.07 116.31"/>
        <path class="cls-16" d="M196.3,172.21c13.52-15.24,40.63-46.36,40.63-46.36l41.12,112.71L166.23,204.61S186.63,183.11,196.3,172.21Z"/>
        <polygon class="cls-12" points="206.95 308.51 113.79 220.65 166.22 204.61 206.95 308.51"/>
        <polygon class="cls-6" points="206.95 308.51 166.22 204.61 278.05 238.56 206.95 308.51"/>
    </g>
</svg>